HIERARCHY
ROOT mixamorig:Hips
{
	OFFSET 0.000000 103.991501 0.000000
	CHANNELS 6 Xposition Yposition Zposition Xrotation Yrotation Zrotation
	JOINT mixamorig:Spine
	{
		OFFSET 0.000000 10.181602 0.131500
		CHANNELS 6 Xposition Yposition Zposition Xrotation Yrotation Zrotation
		JOINT mixamorig:Spine1
		{
			OFFSET 0.000000 10.083504 -1.000800
			CHANNELS 6 Xposition Yposition Zposition Xrotation Yrotation Zrotation
			JOINT mixamorig:Spine2
			{
				OFFSET 0.000000 9.100006 -1.373400
				CHANNELS 6 Xposition Yposition Zposition Xrotation Yrotation Zrotation
				JOINT mixamorig:Neck
				{
					OFFSET 0.000000 16.671707 -2.516200
					CHANNELS 6 Xposition Yposition Zposition Xrotation Yrotation Zrotation
					JOINT mixamorig:Head
					{
						OFFSET 0.000000 9.617905 1.685000
						CHANNELS 6 Xposition Yposition Zposition Xrotation Yrotation Zrotation
						JOINT mixamorig:HeadTop_End
						{
							OFFSET 0.000000 17.815201 2.585000
							CHANNELS 6 Xposition Yposition Zposition Xrotation Yrotation Zrotation
							End Site
							{
								OFFSET 0.000000 13.794495 0.000000
							}
						}
						JOINT mixamorig:LeftEye
						{
							OFFSET 3.067600 6.409500 9.283600
							CHANNELS 6 Xposition Yposition Zposition Xrotation Yrotation Zrotation
							End Site
							{
								OFFSET 0.000000 13.794495 0.000000
							}
						}
						JOINT mixamorig:RightEye
						{
							OFFSET -3.067600 6.409500 9.283500
							CHANNELS 6 Xposition Yposition Zposition Xrotation Yrotation Zrotation
							End Site
							{
								OFFSET 0.000000 13.794495 0.000000
							}
						}
					}
				}
				JOINT mixamorig:LeftShoulder
				{
					OFFSET 4.570400 10.945999 -2.628000
					CHANNELS 6 Xposition Yposition Zposition Xrotation Yrotation Zrotation
					JOINT mixamorig:LeftArm
					{
						OFFSET 10.592400 -0.524597 -2.232100
						CHANNELS 6 Xposition Yposition Zposition Xrotation Yrotation Zrotation
						JOINT mixamorig:LeftForeArm
						{
							OFFSET 27.841499 0.000000 0.000000
							CHANNELS 6 Xposition Yposition Zposition Xrotation Yrotation Zrotation
							JOINT mixamorig:LeftHand
							{
								OFFSET 28.328800 0.000000 0.000000
								CHANNELS 6 Xposition Yposition Zposition Xrotation Yrotation Zrotation
								JOINT mixamorig:LeftHandThumb1
								{
									OFFSET 2.466103 -1.576218 2.681689
									CHANNELS 6 Xposition Yposition Zposition Xrotation Yrotation Zrotation
									JOINT mixamorig:LeftHandThumb2
									{
										OFFSET 3.229782 -1.864716 1.864716
										CHANNELS 6 Xposition Yposition Zposition Xrotation Yrotation Zrotation
										JOINT mixamorig:LeftHandThumb3
										{
											OFFSET 2.652611 -1.531494 1.531488
											CHANNELS 6 Xposition Yposition Zposition Xrotation Yrotation Zrotation
											JOINT mixamorig:LeftHandThumb4
											{
												OFFSET 1.954605 -1.128494 1.128493
												CHANNELS 6 Xposition Yposition Zposition Xrotation Yrotation Zrotation
												End Site
												{
													OFFSET -0.000404 2.523392 0.000683
												}
											}
										}
									}
								}
								JOINT mixamorig:LeftHandIndex1
								{
									OFFSET 9.109299 -0.518112 2.259867
									CHANNELS 6 Xposition Yposition Zposition Xrotation Yrotation Zrotation
									JOINT mixamorig:LeftHandIndex2
									{
										OFFSET 3.676399 0.000000 0.000000
										CHANNELS 6 Xposition Yposition Zposition Xrotation Yrotation Zrotation
										JOINT mixamorig:LeftHandIndex3
										{
											OFFSET 2.883102 0.000000 0.000000
											CHANNELS 6 Xposition Yposition Zposition Xrotation Yrotation Zrotation
											JOINT mixamorig:LeftHandIndex4
											{
												OFFSET 2.392700 0.000000 0.000000
												CHANNELS 6 Xposition Yposition Zposition Xrotation Yrotation Zrotation
												End Site
												{
													OFFSET 0.000000 2.392700 0.001080
												}
											}
										}
									}
								}
								JOINT mixamorig:LeftHandMiddle1
								{
									OFFSET 9.533401 0.000000 0.000000
									CHANNELS 6 Xposition Yposition Zposition Xrotation Yrotation Zrotation
									JOINT mixamorig:LeftHandMiddle2
									{
										OFFSET 3.698196 0.000000 0.000000
										CHANNELS 6 Xposition Yposition Zposition Xrotation Yrotation Zrotation
										JOINT mixamorig:LeftHandMiddle3
										{
											OFFSET 2.950897 0.000000 0.000000
											CHANNELS 6 Xposition Yposition Zposition Xrotation Yrotation Zrotation
											JOINT mixamorig:LeftHandMiddle4
											{
												OFFSET 2.833900 0.000000 0.000000
												CHANNELS 6 Xposition Yposition Zposition Xrotation Yrotation Zrotation
												End Site
												{
													OFFSET 0.000000 2.833893 0.001278
												}
											}
										}
									}
								}
								JOINT mixamorig:LeftHandRing1
								{
									OFFSET 9.104500 -0.043060 -1.865119
									CHANNELS 6 Xposition Yposition Zposition Xrotation Yrotation Zrotation
									JOINT mixamorig:LeftHandRing2
									{
										OFFSET 3.153999 0.000000 0.000000
										CHANNELS 6 Xposition Yposition Zposition Xrotation Yrotation Zrotation
										JOINT mixamorig:LeftHandRing3
										{
											OFFSET 2.937698 0.000000 0.000000
											CHANNELS 6 Xposition Yposition Zposition Xrotation Yrotation Zrotation
											JOINT mixamorig:LeftHandRing4
											{
												OFFSET 2.647499 0.000000 0.000000
												CHANNELS 6 Xposition Yposition Zposition Xrotation Yrotation Zrotation
												End Site
												{
													OFFSET 0.000000 2.647507 0.001195
												}
											}
										}
									}
								}
								JOINT mixamorig:LeftHandPinky1
								{
									OFFSET 8.077797 -0.486984 -3.806321
									CHANNELS 6 Xposition Yposition Zposition Xrotation Yrotation Zrotation
									JOINT mixamorig:LeftHandPinky2
									{
										OFFSET 3.599998 0.000000 0.000000
										CHANNELS 6 Xposition Yposition Zposition Xrotation Yrotation Zrotation
										JOINT mixamorig:LeftHandPinky3
										{
											OFFSET 2.114197 0.000000 0.000000
											CHANNELS 6 Xposition Yposition Zposition Xrotation Yrotation Zrotation
											JOINT mixamorig:LeftHandPinky4
											{
												OFFSET 1.975700 0.000000 0.000000
												CHANNELS 6 Xposition Yposition Zposition Xrotation Yrotation Zrotation
												End Site
												{
													OFFSET 0.000000 1.975693 0.000892
												}
											}
										}
									}
								}
							}
						}
					}
				}
				JOINT mixamorig:RightShoulder
				{
					OFFSET -4.570000 10.946198 -2.628000
					CHANNELS 6 Xposition Yposition Zposition Xrotation Yrotation Zrotation
					JOINT mixamorig:RightArm
					{
						OFFSET -10.592800 -0.524796 -2.232100
						CHANNELS 6 Xposition Yposition Zposition Xrotation Yrotation Zrotation
						JOINT mixamorig:RightForeArm
						{
							OFFSET -27.841499 0.000000 0.000000
							CHANNELS 6 Xposition Yposition Zposition Xrotation Yrotation Zrotation
							JOINT mixamorig:RightHand
							{
								OFFSET -28.328800 0.000000 0.000000
								CHANNELS 6 Xposition Yposition Zposition Xrotation Yrotation Zrotation
								JOINT mixamorig:RightHandPinky1
								{
									OFFSET -8.076698 -0.486725 -3.806227
									CHANNELS 6 Xposition Yposition Zposition Xrotation Yrotation Zrotation
									JOINT mixamorig:RightHandPinky2
									{
										OFFSET -3.599998 0.000000 0.000000
										CHANNELS 6 Xposition Yposition Zposition Xrotation Yrotation Zrotation
										JOINT mixamorig:RightHandPinky3
										{
											OFFSET -2.114197 0.000000 0.000000
											CHANNELS 6 Xposition Yposition Zposition Xrotation Yrotation Zrotation
											JOINT mixamorig:RightHandPinky4
											{
												OFFSET -1.975700 0.000000 0.000000
												CHANNELS 6 Xposition Yposition Zposition Xrotation Yrotation Zrotation
												End Site
												{
													OFFSET 0.000000 1.975693 0.000919
												}
											}
										}
									}
								}
								JOINT mixamorig:RightHandRing1
								{
									OFFSET -9.103600 -0.043030 -1.865120
									CHANNELS 6 Xposition Yposition Zposition Xrotation Yrotation Zrotation
									JOINT mixamorig:RightHandRing2
									{
										OFFSET -3.153999 0.000000 0.000000
										CHANNELS 6 Xposition Yposition Zposition Xrotation Yrotation Zrotation
										JOINT mixamorig:RightHandRing3
										{
											OFFSET -2.937698 0.000000 0.000000
											CHANNELS 6 Xposition Yposition Zposition Xrotation Yrotation Zrotation
											JOINT mixamorig:RightHandRing4
											{
												OFFSET -2.647499 0.000000 0.000000
												CHANNELS 6 Xposition Yposition Zposition Xrotation Yrotation Zrotation
												End Site
												{
													OFFSET 0.000000 2.647507 0.001231
												}
											}
										}
									}
								}
								JOINT mixamorig:RightHandMiddle1
								{
									OFFSET -9.532501 0.000000 0.000000
									CHANNELS 6 Xposition Yposition Zposition Xrotation Yrotation Zrotation
									JOINT mixamorig:RightHandMiddle2
									{
										OFFSET -3.698196 0.000000 0.000000
										CHANNELS 6 Xposition Yposition Zposition Xrotation Yrotation Zrotation
										JOINT mixamorig:RightHandMiddle3
										{
											OFFSET -2.950897 0.000000 0.000000
											CHANNELS 6 Xposition Yposition Zposition Xrotation Yrotation Zrotation
											JOINT mixamorig:RightHandMiddle4
											{
												OFFSET -2.833900 0.000000 0.000000
												CHANNELS 6 Xposition Yposition Zposition Xrotation Yrotation Zrotation
												End Site
												{
													OFFSET 0.000000 2.833893 0.001318
												}
											}
										}
									}
								}
								JOINT mixamorig:RightHandIndex1
								{
									OFFSET -9.108299 -0.517853 2.259859
									CHANNELS 6 Xposition Yposition Zposition Xrotation Yrotation Zrotation
									JOINT mixamorig:RightHandIndex2
									{
										OFFSET -3.676399 0.000000 0.000000
										CHANNELS 6 Xposition Yposition Zposition Xrotation Yrotation Zrotation
										JOINT mixamorig:RightHandIndex3
										{
											OFFSET -2.883102 0.000000 0.000000
											CHANNELS 6 Xposition Yposition Zposition Xrotation Yrotation Zrotation
											JOINT mixamorig:RightHandIndex4
											{
												OFFSET -2.392700 0.000000 0.000000
												CHANNELS 6 Xposition Yposition Zposition Xrotation Yrotation Zrotation
												End Site
												{
													OFFSET 0.000000 2.392700 0.001113
												}
											}
										}
									}
								}
								JOINT mixamorig:RightHandThumb1
								{
									OFFSET -2.464798 -1.573944 2.681868
									CHANNELS 6 Xposition Yposition Zposition Xrotation Yrotation Zrotation
									JOINT mixamorig:RightHandThumb2
									{
										OFFSET -3.229782 -1.864716 1.864716
										CHANNELS 6 Xposition Yposition Zposition Xrotation Yrotation Zrotation
										JOINT mixamorig:RightHandThumb3
										{
											OFFSET -2.652542 -1.531448 1.531448
											CHANNELS 6 Xposition Yposition Zposition Xrotation Yrotation Zrotation
											JOINT mixamorig:RightHandThumb4
											{
												OFFSET -1.954605 -1.128494 1.128493
												CHANNELS 6 Xposition Yposition Zposition Xrotation Yrotation Zrotation
												End Site
												{
													OFFSET 0.000412 2.523392 0.000704
												}
											}
										}
									}
								}
							}
						}
					}
				}
			}
		}
	}
	JOINT mixamorig:LeftUpLeg
	{
		OFFSET 8.207800 -6.751701 -1.599600
		CHANNELS 6 Xposition Yposition Zposition Xrotation Yrotation Zrotation
		JOINT mixamorig:LeftLeg
		{
			OFFSET 0.000000 -44.370499 0.284600
			CHANNELS 6 Xposition Yposition Zposition Xrotation Yrotation Zrotation
			JOINT mixamorig:LeftFoot
			{
				OFFSET 0.000000 -44.427898 -2.982200
				CHANNELS 6 Xposition Yposition Zposition Xrotation Yrotation Zrotation
				JOINT mixamorig:LeftToeBase
				{
					OFFSET 0.000000 -8.728700 10.710600
					CHANNELS 6 Xposition Yposition Zposition Xrotation Yrotation Zrotation
					JOINT mixamorig:LeftToe_End
					{
						OFFSET 0.000000 -0.000700 9.278099
						CHANNELS 6 Xposition Yposition Zposition Xrotation Yrotation Zrotation
						End Site
						{
							OFFSET 0.000000 9.278100 0.000000
						}
					}
				}
			}
		}
	}
	JOINT mixamorig:RightUpLeg
	{
		OFFSET -8.207800 -6.751701 -1.599600
		CHANNELS 6 Xposition Yposition Zposition Xrotation Yrotation Zrotation
		JOINT mixamorig:RightLeg
		{
			OFFSET 0.000000 -44.370499 0.286200
			CHANNELS 6 Xposition Yposition Zposition Xrotation Yrotation Zrotation
			JOINT mixamorig:RightFoot
			{
				OFFSET 0.000000 -44.427700 -2.983800
				CHANNELS 6 Xposition Yposition Zposition Xrotation Yrotation Zrotation
				JOINT mixamorig:RightToeBase
				{
					OFFSET 0.000000 -8.728700 10.710600
					CHANNELS 6 Xposition Yposition Zposition Xrotation Yrotation Zrotation
					JOINT mixamorig:RightToe_End
					{
						OFFSET 0.000000 -0.000700 9.278100
						CHANNELS 6 Xposition Yposition Zposition Xrotation Yrotation Zrotation
						End Site
						{
							OFFSET 0.000000 9.278100 0.000000
						}
					}
				}
			}
		}
	}
}
MOTION
Frames: 3
Frame Time: 0.016667
-0.499443 103.456734 1.635022 -0.174824 -10.122867 -3.268094 0.000000 10.181600 0.131500 3.529953 2.320995 3.209638 0.000000 10.083513 -1.000801 -1.311954 0.325491 -1.658851 -0.000000 9.100005 -1.373400 -1.303342 0.322727 -1.666204 -0.000001 16.671684 -2.516201 -2.258047 -0.918688 3.600314 0.000001 9.617918 1.685000 0.358960 -1.043665 9.505217 0.000002 17.815216 2.585001 -0.000000 0.000001 0.000001 3.067602 6.409531 9.283600 -0.000000 0.000001 0.000001 -3.067600 6.409531 9.283500 -0.000000 0.000001 0.000001 4.570400 10.946015 -2.628000 1.625777 -7.529780 9.160833 10.592402 -0.524584 -2.232100 -16.086371 -76.623173 -15.398832 27.841499 -0.000000 -0.000001 0.000001 -3.826581 -0.000000 28.328791 0.000001 0.000000 -0.101410 -3.252341 16.571842 2.466097 -1.576221 2.681689 -1.540041 3.690180 6.142355 3.229789 -1.864707 1.864716 3.939056 7.948701 0.746805 2.652615 -1.531472 1.531488 -0.579467 1.574993 2.538720 1.954601 -1.128479 1.128494 0.000000 0.000000 -0.000002 9.109297 -0.518118 2.259866 0.065444 0.949009 -7.889470 3.676393 0.000000 0.000003 0.053566 0.858970 -7.136635 2.883104 -0.000003 0.000002 0.130652 1.337631 -11.156502 2.392694 -0.000002 0.000001 -0.000000 -0.000000 -0.000001 9.533396 -0.000021 -0.000001 0.154706 1.454277 -12.143945 3.698203 -0.000000 0.000001 0.060672 0.913925 -7.595997 2.950898 -0.000007 0.000002 0.127022 1.319115 -11.000108 2.833901 -0.000002 0.000003 0.000000 -0.000000 -0.000000 9.104496 -0.043071 -1.865119 0.332656 2.118264 -17.847911 3.153983 0.000001 -0.000003 0.065360 0.948389 -7.884419 2.937698 0.000023 -0.000001 0.124928 1.308273 -10.908501 2.647499 0.000018 -0.000003 0.000000 0.000000 0.000000 8.077800 -0.486983 -3.806320 2.150482 6.455439 -22.836073 3.599998 -0.000020 -0.000001 0.041842 -3.206167 -7.556939 2.114186 -0.000023 -0.000000 0.129642 1.332515 -11.113202 1.975709 0.000003 -0.000003 -0.000001 0.000000 -0.000001 -4.570002 10.946161 -2.627999 2.621178 37.632894 3.204972 -10.592799 -0.524799 -2.232098 8.924171 46.585029 -6.674670 -27.841497 0.000001 -0.000001 -0.000001 13.439495 -0.000001 -28.328787 -0.000009 0.000003 5.194630 -14.341297 -49.338712 -8.076724 -0.486718 -3.806225 0.394645 -2.313391 19.359370 -3.600001 -0.000018 0.000004 0.081852 -1.065897 8.781992 -2.114193 -0.000009 0.000002 0.071546 -0.996948 8.209451 -1.975708 0.000016 0.000003 0.000001 -0.000001 -0.000000 -9.103619 -0.043040 -1.865118 0.206003 -1.683251 13.953670 -3.154000 -0.000026 -0.000001 0.092017 -1.129760 9.312544 -2.937713 0.000015 0.000001 0.072244 -1.001732 8.249156 -2.647501 -0.000002 0.000001 -0.000001 -0.000001 0.000001 -9.532522 0.000026 0.000003 0.068831 -0.977926 8.051858 -3.698216 -0.000013 0.000006 0.085570 -1.089718 8.979538 -2.950893 -0.000006 -0.000000 0.073741 -1.012045 8.334740 -2.833876 -0.000015 -0.000003 0.000001 -0.000001 -0.000001 -9.108335 -0.517842 2.259862 0.012684 -0.420635 3.453729 -3.676397 -0.000025 -0.000002 0.082674 -1.071244 8.826116 -2.883100 -0.000029 -0.000002 0.071934 -0.999614 8.231495 -2.392687 0.000004 0.000002 0.000002 0.000001 0.000001 -2.464819 -1.573945 2.681869 -0.756637 -9.465985 -15.176674 -3.229759 -1.864717 1.864718 4.637200 -8.634128 -0.225408 -2.652547 -1.531457 1.531443 -1.273761 0.137317 -2.094869 -1.954620 -1.128510 1.128494 0.000002 0.000000 0.000003 8.207800 -6.751699 -1.599600 -5.959008 14.323252 12.687207 -0.000002 -44.370491 0.284601 9.713268 7.750264 -0.905726 0.000000 -44.427898 -2.982198 -1.448131 14.326177 -7.864512 0.000000 -8.728699 10.710598 -0.996278 0.000010 -0.000001 -0.000002 -0.000700 9.278098 -0.000000 -0.000000 -0.000000 -8.207802 -6.751703 -1.599600 -5.864505 -6.455380 -5.639260 0.000000 -44.370499 0.286200 4.182915 -8.472382 -2.723030 -0.000006 -44.427696 -2.983800 6.841834 5.666535 12.907815 -0.000002 -8.728700 10.710601 -2.727601 0.096119 -2.817191 -0.000000 -0.000700 9.278098 -0.000000 -0.000001 0.000000 
-0.360677 103.452560 1.740587 -1.331208 -11.100452 -3.788657 0.000000 10.181583 0.131500 4.474111 2.311703 3.692252 -0.000000 10.083502 -1.000801 -1.408807 0.325337 -1.798847 0.000000 9.100011 -1.373401 -1.399523 0.320238 -1.807017 -0.000000 16.671709 -2.516201 -1.538510 -0.726076 3.631338 0.000000 9.617885 1.685000 0.363113 -0.306077 9.593101 0.000000 17.815186 2.585000 -0.000000 -0.000000 0.000001 3.067596 6.409485 9.283599 -0.000000 -0.000000 0.000001 -3.067604 6.409485 9.283500 -0.000000 -0.000000 0.000001 4.570400 10.946010 -2.628000 1.610008 -7.371378 9.251638 10.592403 -0.524587 -2.232100 -17.954607 -76.346680 -17.751607 27.841501 -0.000015 -0.000000 -0.000000 -3.631311 0.000000 28.328800 -0.000030 -0.000000 -0.092413 -2.885801 16.404144 2.466099 -1.576244 2.681690 -1.540039 3.690179 6.142348 3.229802 -1.864710 1.864713 3.939052 7.948688 0.746815 2.652605 -1.531505 1.531487 -0.579467 1.574993 2.538718 1.954596 -1.128481 1.128493 0.000000 -0.000000 -0.000002 9.109295 -0.518118 2.259868 0.063005 0.931251 -7.740971 3.676390 0.000010 0.000000 0.052351 0.849214 -7.055305 2.883099 0.000006 0.000001 0.129701 1.332836 -11.115829 2.392699 -0.000016 0.000002 -0.000000 -0.000000 0.000000 9.533405 -0.000021 0.000001 0.151288 1.438306 -12.008584 3.698198 -0.000014 0.000002 0.059443 0.904655 -7.518501 2.950894 0.000008 0.000000 0.126167 1.314712 -10.962864 2.833888 0.000003 0.000002 0.000000 -0.000000 0.000002 9.104487 -0.043081 -1.865118 0.328018 2.103806 -17.722000 3.154004 0.000019 -0.000001 0.064275 0.940550 -7.818661 2.937692 0.000005 -0.000002 0.124215 1.304604 -10.877408 2.647494 -0.000001 0.000001 0.000000 -0.000000 -0.000001 8.077783 -0.487003 -3.806317 2.136532 6.445207 -22.711931 3.599998 -0.000019 0.000000 0.041034 -3.212258 -7.505941 2.114202 -0.000033 -0.000004 0.129048 1.329476 -11.087666 1.975703 0.000005 -0.000000 -0.000000 -0.000000 -0.000001 -4.570000 10.946199 -2.628000 2.621125 37.738824 3.213222 -10.592800 -0.524774 -2.232101 7.586249 47.326302 -5.203925 -27.841499 -0.000031 -0.000002 -0.000000 13.454453 0.000002 -28.328789 -0.000018 -0.000002 5.470707 -13.802440 -48.280971 -8.076713 -0.486723 -3.806228 0.394331 -2.312510 19.351686 -3.599999 -0.000025 0.000001 0.081397 -1.062964 8.757402 -2.114204 0.000000 0.000004 0.071333 -0.995466 8.197158 -1.975709 -0.000016 0.000005 0.000001 0.000001 0.000000 -9.103595 -0.043032 -1.865121 0.206381 -1.684815 13.966821 -3.153995 -0.000010 -0.000005 0.091680 -1.127644 9.294928 -2.937702 0.000010 0.000001 0.072039 -1.000363 8.237778 -2.647497 0.000014 -0.000007 0.000000 -0.000001 -0.000001 -9.532502 0.000015 0.000001 0.069476 -0.982506 8.089656 -3.698199 -0.000018 0.000003 0.085364 -1.088428 8.968786 -2.950901 -0.000007 0.000001 0.073589 -1.011000 8.326121 -2.833888 -0.000029 0.000005 -0.000002 0.000001 0.000001 -9.108301 -0.517846 2.259861 0.013128 -0.427923 3.513578 -3.676414 -0.000019 0.000000 0.082485 -1.070004 8.815768 -2.883102 -0.000012 -0.000000 0.071832 -0.998954 8.226332 -2.392688 -0.000001 -0.000002 -0.000001 0.000000 -0.000002 -2.464804 -1.573951 2.681871 -0.756644 -9.465981 -15.176675 -3.229789 -1.864703 1.864715 4.637201 -8.634116 -0.225396 -2.652536 -1.531439 1.531446 -1.273763 0.137319 -2.094873 -1.954610 -1.128492 1.128489 0.000001 -0.000001 -0.000001 8.207800 -6.751711 -1.599600 -4.779256 14.040319 13.070204 -0.000000 -44.370502 0.284599 10.395639 7.895752 -1.225913 -0.000000 -44.427898 -2.982199 -2.096678 14.975540 -7.814168 0.000002 -8.728700 10.710600 -1.048857 -0.000012 -0.000001 -0.000000 -0.000700 9.278098 0.000000 0.000002 0.000000 -8.207800 -6.751705 -1.599601 -4.999470 -5.329388 -5.693548 0.000000 -44.370510 0.286201 4.838457 -7.240874 -2.118852 -0.000001 -44.427708 -2.983800 6.825063 4.834825 13.156353 -0.000000 -8.728700 10.710598 -2.919404 0.096506 -3.078150 0.000000 -0.000700 9.278097 -0.000000 0.000001 -0.000000 
-0.273859 103.390915 1.834867 -2.311046 -12.374727 -4.124163 -0.000001 10.181605 0.131501 5.115486 2.292075 4.020272 0.000000 10.083505 -1.000800 -1.361306 0.323589 -1.907194 -0.000000 9.100010 -1.373401 -1.351579 0.315814 -1.915482 -0.000000 16.671711 -2.516200 -1.136886 -0.546201 3.610838 0.000000 9.617898 1.685000 0.576695 0.508782 9.240805 0.000004 17.815201 2.585001 0.000000 0.000000 0.000001 3.067603 6.409500 9.283600 0.000000 0.000000 0.000001 -3.067595 6.409515 9.283501 0.000000 0.000000 0.000001 4.570401 10.945975 -2.628000 1.463350 -6.716167 9.087997 10.592400 -0.524599 -2.232100 -19.048879 -76.233271 -19.181632 27.841497 0.000015 -0.000001 -0.000000 -3.442722 0.000000 28.328802 -0.000000 0.000000 -0.032487 -2.658786 16.211005 2.466114 -1.576222 2.681691 -1.540042 3.690168 6.142352 3.229799 -1.864702 1.864715 3.939049 7.948669 0.746810 2.652612 -1.531493 1.531488 -0.579467 1.574993 2.538718 1.954605 -1.128481 1.128492 -0.000000 -0.000000 0.000000 9.109303 -0.518092 2.259867 0.061594 0.920785 -7.653404 3.676389 -0.000001 0.000000 0.051549 0.842681 -7.000618 2.883109 0.000000 -0.000001 0.129065 1.329572 -11.088476 2.392702 0.000016 -0.000000 0.000000 -0.000000 -0.000001 9.533398 0.000024 0.000003 0.149147 1.428188 -11.922920 3.698207 0.000016 0.000001 0.058615 0.898364 -7.465948 2.950899 -0.000039 0.000001 0.125592 1.311734 -10.937768 2.833897 0.000000 -0.000003 -0.000000 -0.000000 -0.000001 9.104499 -0.043066 -1.865119 0.324965 2.094224 -17.638516 3.154008 0.000021 0.000004 0.063511 0.934942 -7.771863 2.937693 -0.000007 0.000002 0.123712 1.301963 -10.855291 2.647504 -0.000016 -0.000001 -0.000000 0.000000 -0.000002 8.077786 -0.486980 -3.806317 2.127173 6.438314 -22.628458 3.599996 -0.000013 0.000001 0.040411 -3.217011 -7.466449 2.114212 -0.000002 -0.000001 0.128591 1.327141 -11.067887 1.975702 0.000006 -0.000001 0.000000 -0.000000 -0.000000 -4.570000 10.946202 -2.627999 2.618140 37.671963 3.214406 -10.592800 -0.524789 -2.232100 6.687240 48.205262 -4.143110 -27.841497 0.000000 -0.000000 -0.000002 13.327325 -0.000000 -28.328794 0.000014 0.000000 5.649655 -13.474255 -47.561192 -8.076725 -0.486723 -3.806228 0.395571 -2.316016 19.382156 -3.599996 0.000001 -0.000004 0.081333 -1.062537 8.753888 -2.114199 0.000014 -0.000003 0.071299 -0.995236 8.195401 -1.975699 0.000016 -0.000005 0.000001 0.000000 -0.000001 -9.103621 -0.043050 -1.865123 0.207771 -1.690326 14.013443 -3.154001 0.000010 0.000005 0.091910 -1.129134 9.307327 -2.937696 -0.000019 -0.000002 0.072132 -1.000978 8.243202 -2.647483 0.000002 0.000003 0.000002 -0.000000 -0.000000 -9.532506 0.000010 -0.000002 0.070686 -0.990959 8.159785 -3.698175 0.000004 0.000003 0.085930 -1.091980 8.998469 -2.950875 -0.000033 0.000004 0.073839 -1.012745 8.340514 -2.833889 -0.000016 -0.000003 -0.000001 0.000002 0.000001 -9.108296 -0.517853 2.259859 0.013842 -0.439318 3.607136 -3.676386 -0.000010 0.000002 0.083249 -1.074922 8.856738 -2.883108 0.000011 -0.000001 0.072198 -1.001456 8.246804 -2.392692 -0.000028 0.000004 0.000000 0.000000 -0.000000 -2.464812 -1.573964 2.681870 -0.756645 -9.465978 -15.176680 -3.229785 -1.864703 1.864721 4.637197 -8.634123 -0.225388 -2.652520 -1.531460 1.531448 -1.273764 0.137319 -2.094870 -1.954594 -1.128509 1.128496 0.000000 -0.000001 0.000002 8.207798 -6.751702 -1.599599 -3.938892 14.496952 13.422186 -0.000000 -44.370502 0.284601 11.215115 7.821864 -1.615368 0.000000 -44.427895 -2.982199 -2.805595 15.412757 -7.727535 0.000001 -8.728699 10.710601 -1.068974 -0.000014 0.000000 0.000003 -0.000700 9.278099 -0.000000 0.000000 0.000000 -8.207801 -6.751703 -1.599599 -4.683398 -4.894587 -5.827857 -0.000000 -44.370491 0.286202 5.818125 -5.255724 -1.654715 -0.000004 -44.427700 -2.983800 6.531600 3.994320 12.851124 0.000001 -8.728701 10.710598 -3.225400 0.098238 -2.844672 0.000001 -0.000700 9.278102 -0.000000 -0.000001 0.000000 
